<svg xmlns="http://www.w3.org/2000/svg" xmlns:xlink="http://www.w3.org/1999/xlink" width="500" height="500" viewBox="0 0 500 500">
  <defs>
    <clipPath id="clip-ic-asuransi-_18">
      <rect width="500" height="500"/>
    </clipPath>
  </defs>
  <g id="ic-asuransi-_18" data-name="ic-asuransi- – 18" clip-path="url(#clip-ic-asuransi-_18)">
    <rect width="500" height="500" fill="rgba(255,255,255,0)"/>
    <g id="insurance-04" transform="translate(41.181 -0.189)">
      <g id="surface1" transform="translate(0 0)">
        <path id="Path_394" data-name="Path 394" d="M429.525,334.25a95.3,95.3,0,1,0,95.3,95.291A95.411,95.411,0,0,0,429.525,334.25Zm56.583,77.344-68.276,68.282a14.667,14.667,0,0,1-20.758,0l-26.088-26.088a14.676,14.676,0,1,1,20.754-20.755l15.713,15.716,57.892-57.893A14.676,14.676,0,1,1,486.1,411.609Z" transform="translate(-216.525 -179.442)" fill="#2a4095"/>
        <path id="Path_395" data-name="Path 395" d="M505.566,135.7v-.389c-.218-4.8-.361-9.888-.463-15.543a53.01,53.01,0,0,0-49.912-51.932c-57.517-3.2-102.006-21.948-140.016-59l-.324-.31a32,32,0,0,0-43.5,0l-.324.31C233.01,45.886,188.521,64.639,131,67.849a53.015,53.015,0,0,0-49.917,51.937c-.084,5.618-.232,10.7-.463,15.539l-.023.9C79.476,194.871,78.086,267.858,102.5,334.1c13.431,36.431,33.758,68.082,60.43,94.129,30.377,29.641,70.165,53.178,118.253,69.935a36.023,36.023,0,0,0,23.787,0c48.037-16.8,87.778-40.345,118.127-69.981,26.663-26.038,46.995-57.712,60.43-94.153C508.063,267.589,506.678,194.468,505.566,135.7ZM293.093,374.761A124.655,124.655,0,1,1,417.746,250.1,124.8,124.8,0,0,1,293.093,374.761Z" transform="translate(-80.093 0.004)" fill="#2a4095"/>
      </g>
      <path id="Path_396" data-name="Path 396" d="M508.083,531.32A205.192,205.192,0,0,0,467.6,478l-49.768,49.77a14.673,14.673,0,0,1-20.758,0l-26.088-26.089a14.676,14.676,0,1,1,20.754-20.755l15.713,15.716,37.329-37.325a203.34,203.34,0,0,0-93.753-35.863A95.266,95.266,0,1,0,508.07,531.338Z" transform="translate(-216.524 -227.329)" fill="#455daa"/>
      <path id="Path_397" data-name="Path 397" d="M396.839,625.158a204.258,204.258,0,0,0-10.425-64.628A124.6,124.6,0,0,1,183.05,420.92a203.289,203.289,0,0,0-99.75,31.3c2.316,35.755,8.017,72.751,20.952,107.858,13.431,36.431,33.758,68.083,60.43,94.13,30.377,29.641,70.165,53.179,118.253,69.934a36.018,36.018,0,0,0,23.787,0c30.659-10.721,57.934-24.194,81.549-40.245a204.447,204.447,0,0,0,8.568-58.738Z" transform="translate(-81.815 -225.971)" fill="#455daa"/>
    </g>
  </g>
</svg>
