<svg xmlns="http://www.w3.org/2000/svg" xmlns:xlink="http://www.w3.org/1999/xlink" width="500" height="500" viewBox="0 0 500 500">
  <defs>
    <clipPath id="clip-ic-cancel">
      <rect width="500" height="500"/>
    </clipPath>
  </defs>
  <g id="ic-cancel" clip-path="url(#clip-ic-cancel)">
    <rect width="500" height="500" fill="rgba(255,255,255,0)"/>
    <g id="interface_1_" data-name="interface (1)" transform="translate(-0.003 -0.001)">
      <g id="Group_1028" data-name="Group 1028" transform="translate(0 0.001)">
        <path id="Path_2848" data-name="Path 2848" d="M250,0C112.151,0,0,112.15,0,250S112.151,500,250,500,500,387.852,500,250,387.854,0,250,0Zm0,459.016c-115.254,0-209.02-93.762-209.02-209.016S134.749,40.985,250,40.985,459.02,134.749,459.02,250,365.256,459.017,250,459.017Z" transform="translate(0 -0.001)" fill="#ff0606"/>
        <path id="Path_2849" data-name="Path 2849" d="M222.7,193.718l70.7-70.7a20.492,20.492,0,0,0-28.98-28.98l-70.7,70.705L123.014,94.033a20.492,20.492,0,0,0-28.98,28.98l70.705,70.7L94.033,264.424a20.493,20.493,0,0,0,28.98,28.982L193.719,222.7l70.707,70.708a20.493,20.493,0,1,0,28.98-28.982Z" transform="translate(56.282 56.281)" fill="#ff0606"/>
      </g>
    </g>
  </g>
</svg>
