<svg xmlns="http://www.w3.org/2000/svg" xmlns:xlink="http://www.w3.org/1999/xlink" width="500" height="500" viewBox="0 0 500 500">
  <defs>
    <clipPath id="clip-path">
      <rect id="Rectangle_713" data-name="Rectangle 713" width="500.328" height="500.363" fill="none"/>
    </clipPath>
    <clipPath id="clip-ic-callcenter_3">
      <rect width="500" height="500"/>
    </clipPath>
  </defs>
  <g id="ic-callcenter_3" data-name="ic-callcenter – 3" clip-path="url(#clip-ic-callcenter_3)">
    <rect width="500" height="500" fill="rgba(255,255,255,0)"/>
    <g id="_5155-53" data-name="5155-53" transform="translate(-0.328 0.291)">
      <g id="Group_858" data-name="Group 858" transform="translate(0 0)" clip-path="url(#clip-path)">
        <path id="Path_2814" data-name="Path 2814" d="M410.947,529.508a45.234,45.234,0,0,0-20.682-35.229l-67.93-44.637a45.972,45.972,0,0,0-53.976,2.371,31.664,31.664,0,0,1-42.132-2.389l-68.986-68.987a31.654,31.654,0,0,1-2.389-42.132,45.971,45.971,0,0,0,2.375-53.976L112.6,216.622A45.2,45.2,0,0,0,77.38,195.939c-1.2-.092-2.389-.129-3.565-.129a45.066,45.066,0,0,0-34.261,15.51C-13.265,270.787-10.561,361.436,45.7,417.7L189.188,561.2a150.682,150.682,0,0,0,206.374,6.162,45.2,45.2,0,0,0,15.385-37.836Zm0,0" transform="translate(-0.889 -105.637)" fill="#2a4095"/>
      </g>
      <path id="Path_2815" data-name="Path 2815" d="M569.055,66.7a220.445,220.445,0,0,0-311.761,0q-4.237,4.236-8.2,8.709a75.344,75.344,0,0,1,20.834,21.15l44.633,67.931a75.136,75.136,0,0,1-3.931,88.242,2.408,2.408,0,0,0,.185,3.241L379.8,324.958a2.366,2.366,0,0,0,1.727.722,2.317,2.317,0,0,0,1.51-.542,75.232,75.232,0,0,1,88.251-3.94l67.935,44.642a75.351,75.351,0,0,1,21.149,20.835c2.968-2.667,5.88-5.394,8.7-8.214A220.434,220.434,0,0,0,569.055,66.7ZM463.876,226.127H388.488V211.158l38.484-36.345q6.124-5.843,8.268-10.047a18.347,18.347,0,0,0,2.135-8.334q0-5.987-4.06-9.2t-11.9-3.2a27.314,27.314,0,0,0-11.829,2.491,22.636,22.636,0,0,0-8.834,7.487l-16.821-10.834a39.4,39.4,0,0,1,16.107-13.612,53.819,53.819,0,0,1,23.517-4.917A48.306,48.306,0,0,1,443,128.282a29.984,29.984,0,0,1,12.964,10.26,26.587,26.587,0,0,1,4.63,15.608,34.776,34.776,0,0,1-3.422,15.251q-3.418,7.135-13.256,16.251l-22.945,21.663h42.91Zm99.5-20.955H547.127v20.955h-22.52V205.172H470.872V189.638l47.036-63.287h24.214l-43.6,59.99h26.8V167.688h21.806v18.654h16.247Z" transform="translate(-133.763 -1.63)" fill="#2a4095"/>
      <path id="Path_2816" data-name="Path 2816" d="M534.625,459.155v.967h-75.39V445.153l5.812-5.482a243.252,243.252,0,0,0-67.306,1.148,75.027,75.027,0,0,1-16.366,45.906,2.409,2.409,0,0,0,.185,3.242l68.987,68.987a2.36,2.36,0,0,0,1.725.722,2.316,2.316,0,0,0,1.511-.542,75.232,75.232,0,0,1,88.252-3.939l67.935,44.64a75.408,75.408,0,0,1,21.148,20.835c2.968-2.666,5.879-5.393,8.7-8.214a222.917,222.917,0,0,0,19.668-22.473A241.64,241.64,0,0,0,534.625,459.155Z" transform="translate(-204.511 -235.625)" fill="#455daa"/>
      <path id="Path_2817" data-name="Path 2817" d="M451.489,670.647a45.23,45.23,0,0,0-20.681-35.231l-67.93-44.638a45.972,45.972,0,0,0-53.976,2.371,31.667,31.667,0,0,1-42.132-2.388l-68.986-68.988a31.657,31.657,0,0,1-2.389-42.134,45.772,45.772,0,0,0,9.362-21.01A241.215,241.215,0,0,0,77.15,548.882q4.286,5.127,9.093,9.955l143.486,143.5A150.68,150.68,0,0,0,436.1,708.5,45.2,45.2,0,0,0,451.489,670.647Z" transform="translate(-41.43 -246.773)" fill="#455daa"/>
    </g>
  </g>
</svg>
