<svg xmlns="http://www.w3.org/2000/svg" xmlns:xlink="http://www.w3.org/1999/xlink" width="500" height="500" viewBox="0 0 500 500">
  <defs>
    <clipPath id="clip-ic-chat">
      <rect width="500" height="500"/>
    </clipPath>
  </defs>
  <g id="ic-chat" clip-path="url(#clip-ic-chat)">
    <rect width="500" height="500" fill="rgba(255,255,255,0)"/>
    <path id="comment" d="M431.259-1.332H68.742A68.82,68.82,0,0,0,0,67.409V289.265a68.812,68.812,0,0,0,68.5,68.741V458.687L213.172,358.016H431.26A68.822,68.822,0,0,0,500,289.265V67.41A68.82,68.82,0,0,0,431.26-1.332ZM366.175,256.492H133.826v-29.3H366.175Zm0-62.5H133.826v-29.3H366.175Zm0-62.5H133.826v-29.3H366.175Zm0,0" transform="translate(-0.001 21.332)" fill="#f47d00"/>
  </g>
</svg>
