<svg xmlns="http://www.w3.org/2000/svg" xmlns:xlink="http://www.w3.org/1999/xlink" width="500" height="500" viewBox="0 0 500 500">
  <defs>
    <clipPath id="clip-ic-chair-_16">
      <rect width="500" height="500"/>
    </clipPath>
  </defs>
  <g id="ic-chair-_16" data-name="ic-chair- – 16" clip-path="url(#clip-ic-chair-_16)">
    <rect width="500" height="500" fill="rgba(255,255,255,0)"/>
    <g id="icon-08" transform="translate(42)">
      <path id="Path_183" data-name="Path 183" d="M487.546,351.473c-9.016-8.475-19.359-12.6-28.459-14.845,1.707-7.3,3.188-15.09,4.353-23.333a121.665,121.665,0,0,0-1.564-42.989l-26.321-123.2c-4.5-15.9-13.966-27.756-25.789-36.763.463-.606,1.1-1.082,1.559-1.73a38.443,38.443,0,0,0,5.227-33.076l-7.827-46.857a19.881,19.881,0,0,0-1-3.789A38.2,38.2,0,0,0,372.073,0H224.234C208.423,0,194.083,9.992,188,26.747L175.672,73.276a38.422,38.422,0,0,0,4.478,35.306A36.212,36.212,0,0,0,184,112.874c-10.783,8.951-19.4,20.442-23.647,35.555l-26,121.876a122.589,122.589,0,0,0-1.559,43.022q1.776,12.342,4.395,23.3c-9.076,2.271-19.4,6.393-28.394,14.845C100.177,359.508,90,374.33,90,400.147c1.688,34.408,27.792,99.459,114.473,99.459H391.822c86.68,0,112.784-65.032,114.491-100.439C506.331,374.33,496.122,359.508,487.546,351.473Zm-303.88,104.5c-47.462-9.765-51.708-52.44-52.032-56.812,0-11.926,4.164-15.923,5.551-17.236,2.979-2.85,7.161-4.473,10.973-5.329a82.977,82.977,0,0,0,19.61,21.941c.291.273.6.463.874.731,1.582,1.5,3.206,2.808,4.848,4.122a55.02,55.02,0,0,0,5.121,3.557c1.749,1.1,3.312,2.248,5.088,3.146v45.88Zm187.349,2H225.3V412.217c1.809-.606,3.849-1.249,6.222-1.938l1.6-.463c2.188-.624,4.626-1.291,7.161-1.934.925-.25,1.9-.5,2.9-.731q4.311-1.059,9.178-2.059c.606-.125,1.166-.273,1.79-.4,3.812-.749,7.864-1.434,12.028-2.059,1.123-.167,2.271-.315,3.413-.463,3.289-.435,6.7-.81,10.177-1.124,1.355-.125,2.688-.25,4.038-.333,4.686-.333,9.451-.583,14.34-.583s9.576.25,14.22.583c1.388.083,2.706.208,4.057.333q5.186.463,10.117,1.124c1.147.143,2.313.291,3.414.463,4.187.624,8.244,1.309,12.055,2.082.583.1,1.106.227,1.666.352,3.266.671,6.388,1.388,9.307,2.082l2.951.749c2.5.625,4.852,1.272,6.994,1.874.583.19,1.273.356,1.851.523,2.4.708,4.478,1.388,6.286,1.957v45.719Zm-59.077-374.7c-3.187-.065-5.852-.042-7.975,0H292.555c-1.31-.023-2.725-.023-4.307,0H216.014l11.009-41.634H368.7l6.939,41.634ZM412.648,455.974v-45.9c1.767-.893,3.414-2.1,5.089-3.164s3.238-2.165,4.829-3.372c1.689-1.332,3.372-2.641,4.977-4.163.167-.148.356-.273.519-.416a81.77,81.77,0,0,0,20.109-22.339c3.664.833,7.808,2.355,10.866,5.227,1.387,1.309,5.643,5.306,5.685,16.154C464.356,403.413,460.11,446.19,412.648,455.974Z" transform="translate(-90)" fill="#2a4095"/>
      <path id="Path_184" data-name="Path 184" d="M451.824,593.077c-7.651,10.176-19.817,19.673-39.177,23.666v-45.9c1.767-.893,3.414-2.1,5.089-3.166s3.238-2.164,4.829-3.372c1.689-1.332,3.372-2.641,4.977-4.163.167-.148.356-.273.519-.415a77.494,77.494,0,0,0,15.9-16.192C412.55,412.617,300.974,312.884,164.038,299.16a68.388,68.388,0,0,0-3.7,10.052L134.348,431.074A122.592,122.592,0,0,0,132.79,474.1q1.776,12.342,4.395,23.3c-9.076,2.271-19.4,6.394-28.394,14.846C100.177,520.276,90,535.1,90,560.916c1.688,34.409,27.792,99.46,114.473,99.46H391.822c24.494,0,44.15-5.2,59.785-13.444q1.207-13.932,1.221-28.19Q452.837,605.789,451.824,593.077ZM183.665,616.743h0c-47.462-9.762-51.708-52.441-52.032-56.812,0-11.926,4.164-15.922,5.551-17.237,2.979-2.849,7.161-4.473,10.973-5.329a82.926,82.926,0,0,0,19.61,21.943c.291.273.6.461.874.73,1.577,1.5,3.206,2.809,4.848,4.123a55.55,55.55,0,0,0,5.121,3.557c1.749,1.1,3.312,2.247,5.088,3.145Zm187.349,2H225.3V572.985c1.809-.6,3.849-1.25,6.222-1.938l1.6-.463c2.188-.624,4.626-1.291,7.161-1.933.925-.251,1.9-.5,2.9-.731q4.311-1.06,9.178-2.06c.606-.125,1.166-.271,1.79-.4,3.812-.75,7.864-1.434,12.028-2.059,1.123-.166,2.271-.315,3.413-.463,3.289-.439,6.7-.815,10.177-1.123,1.355-.126,2.688-.251,4.038-.333,4.686-.334,9.451-.583,14.34-.583s9.576.249,14.22.583c1.388.082,2.706.208,4.057.333q5.186.46,10.117,1.123c1.147.143,2.313.291,3.414.463,4.187.625,8.244,1.31,12.055,2.082.583.1,1.106.227,1.666.351,3.266.671,6.388,1.387,9.307,2.083l2.951.75c2.5.624,4.852,1.272,6.994,1.872.583.19,1.273.357,1.851.524,2.4.706,4.478,1.388,6.286,1.956Z" transform="translate(-90 -160.769)" fill="#455daa"/>
    </g>
  </g>
</svg>
