<svg xmlns="http://www.w3.org/2000/svg" xmlns:xlink="http://www.w3.org/1999/xlink" width="500" height="500" viewBox="0 0 500 500">
  <defs>
    <clipPath id="clip-ic-cart-disabled">
      <rect width="500" height="500"/>
    </clipPath>
  </defs>
  <g id="ic-cart-disabled" clip-path="url(#clip-ic-cart-disabled)">
    <rect width="500" height="500" fill="rgba(255,255,255,0)"/>
    <g id="foot_icon-35" data-name="foot icon-35" transform="translate(0 -0.13)">
      <circle id="Ellipse_190" data-name="Ellipse 190" cx="250" cy="250" r="250" transform="translate(0 0.13)" fill="#d3d3d3"/>
      <path id="Path_2776" data-name="Path 2776" d="M500.837,339.72h-66.38l-37.236-85.245a9.375,9.375,0,1,0-17.181,7.505L414,339.757H294.833l33.958-77.778a9.375,9.375,0,1,0-17.181-7.505L274.374,339.72h-66.38a13.327,13.327,0,0,0-13.231,16.134l34.958,152.255a13.491,13.491,0,0,0,13.227,10.343H465.884a13.491,13.491,0,0,0,13.227-10.343l34.958-152.245a13.324,13.324,0,0,0-13.232-16.134Zm-224.7,28.75a9.38,9.38,0,0,1-8.588-13.13l7.042-16.143H295.05l-10.319,23.611a9.375,9.375,0,0,1-8.593,5.625Zm31.407,100a9.375,9.375,0,1,1-18.75,0V399.711a9.375,9.375,0,1,1,18.75,0Zm56.245,0a9.375,9.375,0,0,1-18.75,0V399.711a9.375,9.375,0,1,1,18.75,0Zm56.245,0a9.375,9.375,0,0,1-18.75,0V399.711a9.375,9.375,0,1,1,18.75,0Zm16.4-100.773a9.357,9.357,0,0,1-12.338-4.838l-10.319-23.611H434.24l7.042,16.125a9.38,9.38,0,0,1-4.843,12.31Z" transform="translate(-104.416 -133.572)" fill="#fff"/>
      <path id="Path_2777" data-name="Path 2777" d="M389.457,612.681a136.4,136.4,0,0,0-22.986-75.991v53.556a9.375,9.375,0,0,1-18.75,0V521.5a9.338,9.338,0,0,1,1.806-5.514,136.954,136.954,0,0,0-60.366-35.361l-1.75,4.009a9.375,9.375,0,1,1-17.181-7.5l.144-.324a137.536,137.536,0,0,0-70.954,9.449L232.4,629.9a13.491,13.491,0,0,0,13.227,10.343H386.684A137.532,137.532,0,0,0,389.457,612.681Zm-79.231-22.435a9.375,9.375,0,0,1-18.75,0V521.5a9.375,9.375,0,1,1,18.75,0Z" transform="translate(-107.096 -255.361)" fill="#f0efef"/>
    </g>
  </g>
</svg>
