<svg xmlns="http://www.w3.org/2000/svg" xmlns:xlink="http://www.w3.org/1999/xlink" width="500" height="500" viewBox="0 0 500 500">
  <defs>
    <clipPath id="clip-ic-Driver-_14">
      <rect width="500" height="500"/>
    </clipPath>
  </defs>
  <g id="ic-Driver-_14" data-name="ic-Driver- – 14" clip-path="url(#clip-ic-Driver-_14)">
    <rect width="500" height="500" fill="rgba(255,255,255,0)"/>
    <g id="detai_order-26" data-name="detai order-26" transform="translate(27)">
      <path id="Path_268" data-name="Path 268" d="M326.236,1036.219h0c-7.28-5.341-15.648-7.618-23.567-5.657a110.3,110.3,0,0,0,2.976,20.689h33.589A47.123,47.123,0,0,0,326.236,1036.219Z" transform="translate(-190.288 -551.044)" fill="#455daa"/>
      <ellipse id="Ellipse_96" data-name="Ellipse 96" cx="17.443" cy="17.444" rx="17.443" ry="17.444" transform="translate(205.275 456.724)" fill="#455daa"/>
      <path id="Path_269" data-name="Path 269" d="M505.881,481.672,466.239,336.705a14.673,14.673,0,0,0-5.635-8.071l-95.906-68.3a113.351,113.351,0,0,0,32.125-78.895c0-59.084.4-62.3-1.339-73.1C394.848,46.493,347.971,0,285.935,0h-4.556C219.341,0,172.47,46.493,171.828,108.33c-1.734,10.777-1.339,14.008-1.339,73.1a113.341,113.341,0,0,0,32.13,78.895l-95.91,68.313a14.663,14.663,0,0,0-5.635,8.076L61.455,481.672A14.659,14.659,0,0,0,75.588,500.19h73.771a138.21,138.21,0,0,1-2.464-26.036,136.765,136.765,0,1,1,273.529,0,138.245,138.245,0,0,1-2.475,26.057l73.775-.021a14.659,14.659,0,0,0,14.156-18.518ZM274.088,47.479h19.136a14.655,14.655,0,0,1,0,29.291H274.088a14.655,14.655,0,1,1,0-29.291Zm-5.081,262.786-32.236,21.178-42.995-28.826L226.7,279.17a112.8,112.8,0,0,0,42.306,14.413ZM199.8,181.436c0-10.494,0-19.179-.023-26.45l7.876,11.5a14.652,14.652,0,0,0,12.087,6.37H347.586a14.653,14.653,0,0,0,12.088-6.37l7.875-11.5v26.45a83.876,83.876,0,0,1-167.752,0ZM330.542,331.442,298.31,310.265V293.527a112.637,112.637,0,0,0,42.306-14.413l32.925,23.447Z" transform="translate(-60.938)" fill="#2a4095"/>
      <path id="Path_270" data-name="Path 270" d="M498.438,861.5h.07a173.564,173.564,0,0,1,25.183,8.183,110.478,110.478,0,0,0-216.1.012,173.536,173.536,0,0,1,25.17-8.183h.073c22.991-5.759,51.68-9.173,82.8-9.173s59.811,3.414,82.8,9.161Z" transform="translate(-192.919 -418.55)" fill="#2a4095"/>
      <path id="Path_271" data-name="Path 271" d="M735.26,1030.548c-7.9-1.953-16.271.32-23.567,5.653h0a47.084,47.084,0,0,0-12.993,15.026h33.587a109.7,109.7,0,0,0,2.977-20.7Z" transform="translate(-402.198 -551.039)" fill="#2a4095"/>
      <path id="Path_272" data-name="Path 272" d="M770.941,1052.027a110.166,110.166,0,0,0,2.975-20.677" transform="translate(-440.857 -551.841)" fill="#2a4095"/>
      <path id="Path_273" data-name="Path 273" d="M725.934,1030.42a31.842,31.842,0,0,0-14.24,6.087h0a47.043,47.043,0,0,0-12.993,15.02h30.218Q727.936,1040.821,725.934,1030.42Z" transform="translate(-402.198 -551.341)" fill="#455daa"/>
      <path id="Path_274" data-name="Path 274" d="M466.113,794.462A110.443,110.443,0,0,0,307.59,869.69a173.282,173.282,0,0,1,25.17-8.181h.073c22.991-5.759,51.68-9.173,82.8-9.173s59.811,3.414,82.8,9.157h.071q4.566,1.148,8.835,2.4A219.833,219.833,0,0,0,466.113,794.462Z" transform="translate(-192.919 -418.55)" fill="#455daa"/>
      <path id="Path_275" data-name="Path 275" d="M255.878,665.266,236.771,677.82l-42.995-28.825.284-.2a223.139,223.139,0,0,0-50.54,0l-36.811,26.219a14.645,14.645,0,0,0-5.635,8.074L61.455,828.052a14.656,14.656,0,0,0,14.133,18.516h73.771a138.213,138.213,0,0,1-2.464-26.038,136.759,136.759,0,0,1,136.747-136.75c2.231,0,4.439.051,6.639.159A219.559,219.559,0,0,0,255.878,665.266Z" transform="translate(-60.938 -346.382)" fill="#455daa"/>
    </g>
  </g>
</svg>
