<svg xmlns="http://www.w3.org/2000/svg" xmlns:xlink="http://www.w3.org/1999/xlink" width="500" height="500" viewBox="0 0 500 500">
  <defs>
    <clipPath id="clip-ic-deafult_profile">
      <rect width="500" height="500"/>
    </clipPath>
  </defs>
  <g id="ic-deafult_profile" data-name="ic-deafult profile" clip-path="url(#clip-ic-deafult_profile)">
    <rect width="500" height="500" fill="rgba(255,255,255,0)"/>
    <g id="deafult_profile_mobil-56" data-name="deafult profile mobil-56" transform="translate(0 -0.394)">
      <circle id="Ellipse_256" data-name="Ellipse 256" cx="250" cy="250" r="250" transform="translate(0 0.394)" fill="#ccdaf0"/>
      <path id="Path_2871" data-name="Path 2871" d="M494.619,413.316c-11.269-15.137-67.328-35.754-96.423-46.573-9.909-3.715-15.188-5.693-17.477-6.965-4.179-3.38-17.413-21.308-17.413-21.308h-.929V322.725a126.265,126.265,0,0,0,20.143-29.337c2.786-5.795,5.572-25.6,5.572-25.6,17.645-7.954,19.743-36.041,20.477-51.764.376-7.94-3.575-8.4-7.857-6.659.172-1.481.26-2.883.385-4.328,6.231-16.1,10.7-32.768,11.1-49.948.613-26.323-10.011-54.253-32.327-68.229-20.751-13-47.014-11.892-71.447-10.355-13.712.864-27.823,1.829-40.183,7.829s-21.025,19.2-20.366,32.916c-5.939-7.095-18.076-5.572-24.7.878s-8.948,16.094-10.187,25.269c-2.048,15.16-1.894,30.836,2.6,45.463a70.579,70.579,0,0,0,10,20.338c-4.1-1.514-7.754-.827-7.4,6.826.734,15.7,2.865,43.74,20.431,51.736,1.556,11.9,3.366,21.257,5.479,25.631A126.239,126.239,0,0,0,264.4,322.911v15.56h-.929s-13.257,17.928-17.413,21.308a31.679,31.679,0,0,1-5.252,2.354c-3.2,1.254-7.48,2.837-12.472,4.7-29.151,10.828-84.871,31.384-96.131,46.48-6.2,8.321-11.186,20.008-15.207,33.659a250.562,250.562,0,0,0,392.849,0C505.8,433.324,500.817,421.637,494.619,413.316Z" transform="translate(-62.673 -41.585)" fill="#f1f7fc"/>
    </g>
  </g>
</svg>
