<svg xmlns="http://www.w3.org/2000/svg" xmlns:xlink="http://www.w3.org/1999/xlink" width="500" height="500" viewBox="0 0 500 500">
  <defs>
    <clipPath id="clip-ic-editfilter_2">
      <rect width="500" height="500"/>
    </clipPath>
  </defs>
  <g id="ic-editfilter_2" data-name="ic-editfilter – 2" clip-path="url(#clip-ic-editfilter_2)">
    <rect width="500" height="500" fill="rgba(255,255,255,0)"/>
    <g id="edit_1_" data-name="edit (1)" transform="translate(0 0.731)">
      <path id="Path_320" data-name="Path 320" d="M485.657,296.727a13.1,13.1,0,0,0-13.1,13.105V426.2a39.361,39.361,0,0,1-39.315,39.315H65.525A39.361,39.361,0,0,1,26.21,426.2V84.693A39.358,39.358,0,0,1,65.525,45.378H181.883a13.1,13.1,0,1,0,0-26.21H65.525A65.6,65.6,0,0,0,0,84.693V426.2A65.6,65.6,0,0,0,65.525,491.72H433.237A65.6,65.6,0,0,0,498.762,426.2V309.837A13.108,13.108,0,0,0,485.657,296.727Zm0,0" transform="translate(0 5.868)"/>
      <path id="Path_321" data-name="Path 321" d="M156.367,223.681,347.716,32.328l61.711,61.711L218.078,285.392Zm0,0" transform="translate(48.551 9.954)"/>
      <path id="Path_322" data-name="Path 322" d="M132.543,265.416l68.2-18.889-49.308-49.308Zm0,0" transform="translate(41.154 61.152)"/>
      <path id="Path_323" data-name="Path 323" d="M376.76,9.848a32.8,32.8,0,0,0-46.333,0l-13.9,13.9,61.712,61.711,13.9-13.9a32.794,32.794,0,0,0,0-46.333Zm0,0" transform="translate(98.281)"/>
    </g>
  </g>
</svg>
