<svg xmlns="http://www.w3.org/2000/svg" xmlns:xlink="http://www.w3.org/1999/xlink" width="500" height="500" viewBox="0 0 500 500">
  <defs>
    <clipPath id="clip-image-permata_4">
      <rect width="500" height="500"/>
    </clipPath>
  </defs>
  <g id="image-permata_4" data-name="image-permata – 4" clip-path="url(#clip-image-permata_4)">
    <rect width="500" height="500" fill="rgba(255,255,255,0)"/>
    <g id="duration" transform="translate(0.158 0.166)">
      <path id="Path_95" data-name="Path 95" d="M249.921,0C111.893,0,0,111.893,0,249.921S111.893,499.841,249.921,499.841,499.842,387.948,499.842,249.921,387.948,0,249.921,0Zm0,441.266c-105.509,0-191.346-85.837-191.346-191.345S144.412,58.575,249.921,58.575s191.346,85.837,191.346,191.346S355.429,441.266,249.921,441.266Z" transform="translate(0 0)" fill="#23419b"/>
      <path id="Path_96" data-name="Path 96" d="M252.058,90C162.7,90,90,162.7,90,252.058s72.7,162.058,162.058,162.058,162.058-72.7,162.058-162.058S341.418,90,252.058,90ZM119.288,237.414h29.288V266.7H119.288Zm25.11,93.71-14.644-25.364,25.364-14.644,14.644,25.364ZM155.117,213l-25.364-14.644L144.4,172.99l25.364,14.644Zm43.237,161.364L172.99,359.718l14.644-25.363L213,349Zm-10.72-204.6L172.991,144.4l25.364-14.644L213,155.117ZM266.7,384.828H237.414V355.541H266.7Zm39.06-10.466L291.118,349l25.365-14.644,14.644,25.363Zm53.956-43.237-25.364-14.644L349,291.117l25.364,14.644ZM237.414,266.7V119.288H266.7V237.414H384.829V266.7Z" transform="translate(-2.137 -2.137)" fill="#23419b"/>
    </g>
  </g>
</svg>
