<svg xmlns="http://www.w3.org/2000/svg" xmlns:xlink="http://www.w3.org/1999/xlink" width="500" height="500" viewBox="0 0 500 500">
  <defs>
    <clipPath id="clip-ic-FAQ">
      <rect width="500" height="500"/>
    </clipPath>
  </defs>
  <g id="ic-FAQ" clip-path="url(#clip-ic-FAQ)">
    <rect width="500" height="500" fill="rgba(255,255,255,0)"/>
    <g id="communications" transform="translate(-0.486 0)">
      <path id="Path_2846" data-name="Path 2846" d="M504.657,343.037A162.116,162.116,0,0,0,415.751,198.68C414.1,317.645,317.644,414.1,198.68,415.752a161.674,161.674,0,0,0,226.592,66.437l78.679,21.763-21.763-78.679a161.044,161.044,0,0,0,22.468-82.236Zm0,0" transform="translate(-4.657 -4.657)" fill="#0038a9"/>
      <path id="Path_2847" data-name="Path 2847" d="M381.836,190.918C381.836,85.644,296.192,0,190.918,0S0,85.644,0,190.918A190.323,190.323,0,0,0,26.474,287.96L.7,381.13l93.174-25.768a190.323,190.323,0,0,0,97.042,26.474c105.274,0,190.918-85.644,190.918-190.918ZM161.621,146.484h-29.3a58.594,58.594,0,1,1,98.133,43.24l-24.891,22.781v22.846h-29.3V199.6l34.409-31.494a29,29,0,0,0,9.537-21.626,29.3,29.3,0,0,0-58.594,0ZM176.27,264.649h29.3v29.3h-29.3Zm0,0" transform="translate(0 0)" fill="#0038a9"/>
    </g>
  </g>
</svg>
