<svg xmlns="http://www.w3.org/2000/svg" xmlns:xlink="http://www.w3.org/1999/xlink" width="500" height="500" viewBox="0 0 500 500">
  <defs>
    <clipPath id="clip-ic-CTADown-_9">
      <rect width="500" height="500"/>
    </clipPath>
  </defs>
  <g id="ic-CTADown-_9" data-name="ic-CTADown- – 9" clip-path="url(#clip-ic-CTADown-_9)">
    <rect width="500" height="500" fill="rgba(255,255,255,0)"/>
    <g id="icon-22" transform="translate(28)">
      <g id="Box" transform="translate(0 199.53)">
        <path id="Path_238" data-name="Path 238" d="M733.623,431,571,482.729l45.415,51.91L779.04,482.891Z" transform="translate(-334.258 -431)" fill="#2a4095"/>
        <path id="Path_239" data-name="Path 239" d="M267.659,482.729,105.035,431,59.62,482.891,222.244,534.64Z" transform="translate(-59.62 -431)" fill="#2a4095"/>
      </g>
      <path id="Path_240" data-name="Path 240" d="M254.841,380,210.25,394.189l83.39,26.55A126.666,126.666,0,0,1,254.841,380Z" transform="translate(-140.516 -204.08)" fill="#2a4095"/>
      <path id="Path_241" data-name="Path 241" d="M689.62,420.739l83.39-26.531L728.419,380A126.645,126.645,0,0,1,689.62,420.739Z" transform="translate(-397.963 -204.08)" fill="#2a4095"/>
      <path id="Path_242" data-name="Path 242" d="M504.4,128.805,392.252,93.122a111.816,111.816,0,0,0-220.483,0L59.62,128.805l45.415,51.91,74.687-23.777a111.842,111.842,0,0,0,204.622,0l74.687,23.768Zm-164.7-3.18H278.936a7.652,7.652,0,0,1-7.652-7.653V52.313a7.653,7.653,0,0,1,15.305,0V110.32H339.7a7.652,7.652,0,0,1,0,15.3Z" transform="translate(-59.62)" fill="#2a4095"/>
      <path id="Path_243" data-name="Path 243" d="M400.718,632.387a8.019,8.019,0,0,1-2.449.384A8.141,8.141,0,0,1,392.131,630L349.285,581l-8.161,5.195L332.962,581,290.116,629.98a8.157,8.157,0,0,1-6.139,2.779,8.053,8.053,0,0,1-2.448-.385L169.69,596.838V749.513L331.925,808.5l8.681,3.528,8.68-3.153,163.272-59.363V596.838ZM254.553,747.105a21.378,21.378,0,1,1,21.378-21.379,21.38,21.38,0,0,1-21.378,21.379ZM419.6,750.032a21.384,21.384,0,1,0-.009,0Zm40.481-15.371c-6.787,1.2-17.768,1.39-17.768,1.39s4.394-27.776-22.559-29.749c0,0-24.759-2.6-24.162,28.55l-117.991-2.4s2.778-25.7-21.563-29.322c0,0-25.356-2.421-23.958,26.527a41.843,41.843,0,0,1-9.782-2.194c-3.792-1.6-6.99-6.388-6.99-6.388l1-17.945,2.778-3.82s-.2-10.379,2-12.578,21.161-17.768,27.948-21.36c0,0-2.593-1.8-1-3.393s79.46-10.98,108.611,3.393,36.536,20.371,44.721,21.161,49.313,4.63,59.5,16.6a23.776,23.776,0,0,1,4.389,9.759l1.389,1.389s1.389,11.18-2,17.37c.023.018,2.217,1.815-4.57,3.013Z" transform="translate(-118.733 -312.029)" fill="#2a4095"/>
      <path id="Path_244" data-name="Path 244" d="M359.483,761.685A.927.927,0,0,0,359,763.3c3.769,3.527,14.649,13.176,21.489,13.826,6.944.666,27.717,1.457,34.763,1.716l2.574.171V758.488C387.9,757.256,365.775,760.589,359.483,761.685Z" transform="translate(-220.233 -407.204)" fill="#2a4095"/>
      <path id="Path_245" data-name="Path 245" d="M562.178,780.565c-15.047-8.333-34.078-18.236-41.046-19.12-6.619-.841-13.017-1.43-19.141-1.824l2.782,20.8,53.525,3.515,3.394.209a.93.93,0,0,0,.7-.245.917.917,0,0,0,.3-.683v-1.808A.925.925,0,0,0,562.178,780.565Z" transform="translate(-297.196 -407.957)" fill="#2a4095"/>
    </g>
  </g>
</svg>
