<svg id="Layer_1" data-name="Layer 1" xmlns="http://www.w3.org/2000/svg" xmlns:xlink="http://www.w3.org/1999/xlink" viewBox="0 0 500 500"><defs><style>.cls-1{fill:none;clip-rule:evenodd;}.cls-2{clip-path:url(#clip-path);}.cls-3{fill:#3e82f1;}.cls-4{clip-path:url(#clip-path-2);}.cls-5{fill:#32a753;}.cls-6{clip-path:url(#clip-path-3);}.cls-7{fill:#f9bb00;}.cls-8{clip-path:url(#clip-path-4);}.cls-9{fill:#e74133;}</style><clipPath id="clip-path"><path class="cls-1" d="M494.94,255.68a287.14,287.14,0,0,0-4.54-51.12H255v96.68H389.51a115,115,0,0,1-49.87,75.44v62.71h80.78c47.26-43.51,74.53-107.59,74.53-183.71h0Zm0,0"/></clipPath><clipPath id="clip-path-2"><path class="cls-1" d="M255,499.94c67.48,0,124.06-22.38,165.42-60.55l-80.78-62.71c-22.38,15-51,23.86-84.64,23.86-65.1,0-120.2-44-139.85-103H31.64v64.76A249.85,249.85,0,0,0,255,499.94h0Zm0,0"/></clipPath><clipPath id="clip-path-3"><path class="cls-1" d="M115.14,297.49a147.75,147.75,0,0,1,0-95V137.75H31.64a250.26,250.26,0,0,0,0,224.49l83.5-64.76h0Zm0,0"/></clipPath><clipPath id="clip-path-4"><path class="cls-1" d="M255,99.47c36.7,0,69.64,12.61,95.55,37.38l71.69-71.69C378.95,24.83,322.37.06,255,.06A249.85,249.85,0,0,0,31.64,137.75l83.5,64.76c19.65-59.08,74.76-103,139.85-103h0Zm0,0"/></clipPath></defs><title>ic-google</title><g class="cls-2"><rect id="_Path_" data-name="&lt;Path&gt;" class="cls-3" x="116.14" y="65.7" width="517.66" height="512.55"/></g><g class="cls-4"><rect id="_Path_2" data-name="&lt;Path&gt;" class="cls-5" x="-107.22" y="158.63" width="666.49" height="480.17"/></g><g class="cls-6"><rect id="_Path_3" data-name="&lt;Path&gt;" class="cls-7" x="-133.8" y="-1.1" width="387.8" height="502.21"/></g><g class="cls-8"><rect id="_Path_4" data-name="&lt;Path&gt;" class="cls-9" x="-107.22" y="-138.8" width="668.31" height="480.17"/></g></svg>