<svg xmlns="http://www.w3.org/2000/svg" xmlns:xlink="http://www.w3.org/1999/xlink" width="500" height="500" viewBox="0 0 500 500">
  <defs>
    <clipPath id="clip-ic-hide">
      <rect width="500" height="500"/>
    </clipPath>
  </defs>
  <g id="ic-hide" clip-path="url(#clip-ic-hide)">
    <rect width="500" height="500" fill="rgba(255,255,255,0)"/>
    <g id="hidden" transform="translate(0 1.947)">
      <g id="Group_348" data-name="Group 348" transform="translate(0 32.053)">
        <g id="Group_347" data-name="Group 347">
          <path id="Path_2763" data-name="Path 2763" d="M231.147,160.394l71.637,71.637.341-3.752A68.279,68.279,0,0,0,234.9,160.053Z" transform="translate(15.262 -23.602)" fill="#cacccf"/>
          <path id="Path_2764" data-name="Path 2764" d="M240.28,120.908a113.752,113.752,0,0,1,113.71,113.71,111.953,111.953,0,0,1-8.073,41.5l66.52,66.52a270.09,270.09,0,0,0,78.118-108.023C451.1,134.782,354.1,64.054,240.281,64.054a265.968,265.968,0,0,0-90.626,15.919l49.123,49.008A114.283,114.283,0,0,1,240.28,120.908Z" transform="translate(9.881 -29.94)" fill="#cacccf"/>
          <path id="Path_2765" data-name="Path 2765" d="M22.742,61.049,74.593,112.9l10.348,10.348A269.362,269.362,0,0,0,0,236.73c39.344,99.837,136.451,170.564,250.161,170.564a266.646,266.646,0,0,0,99.724-19.217l9.666,9.666,66.293,66.406,29-28.882L51.737,32.053ZM148.5,186.7l35.136,35.136a72.061,72.061,0,0,0-1.706,14.9,68.279,68.279,0,0,0,68.226,68.226,70.1,70.1,0,0,0,14.783-1.706l35.136,35.136a111.869,111.869,0,0,1-49.919,12.054A112.965,112.965,0,0,1,148.5,186.7Z" transform="translate(0 -32.053)" fill="#cacccf"/>
        </g>
      </g>
    </g>
  </g>
</svg>
