<svg xmlns="http://www.w3.org/2000/svg" xmlns:xlink="http://www.w3.org/1999/xlink" width="500" height="500" viewBox="0 0 500 500">
  <defs>
    <clipPath id="clip-ic-home-disabled">
      <rect width="500" height="500"/>
    </clipPath>
  </defs>
  <g id="ic-home-disabled" clip-path="url(#clip-ic-home-disabled)">
    <rect width="500" height="500" fill="rgba(255,255,255,0)"/>
    <g id="foot_icon-33" data-name="foot icon-33" transform="translate(-1 -1.13)">
      <circle id="Ellipse_188" data-name="Ellipse 188" cx="250.5" cy="250.5" r="250.5" transform="translate(0 0.13)" fill="#d3d3d3"/>
      <path id="Path_2771" data-name="Path 2771" d="M510.5,358.988h0L395.617,244.1a25.923,25.923,0,0,0-36.648,0L244.144,358.9l-.116.121a25.909,25.909,0,0,0,17.248,44.163,7.672,7.672,0,0,0,.8.042h4.579v84.532A30.372,30.372,0,0,0,297,518.1h44.938a8.253,8.253,0,0,0,8.253-8.248V443.576a13.857,13.857,0,0,1,13.843-13.852h26.507a13.857,13.857,0,0,1,13.843,13.843v66.282a8.248,8.248,0,0,0,8.248,8.248h44.943a30.372,30.372,0,0,0,30.339-30.335V403.23h4.245A25.927,25.927,0,0,0,510.5,358.988Z" transform="translate(-126.777 -126.726)" fill="#fff"/>
      <path id="Path_2772" data-name="Path 2772" d="M460.786,546.356A153.172,153.172,0,0,0,307.61,393.18c-4.866,0-9.682.241-14.432.682l-49.034,49.03-.116.121a25.909,25.909,0,0,0,17.248,44.163,7.672,7.672,0,0,0,.8.042h4.579V571.75A30.372,30.372,0,0,0,297,602.084h44.938a8.253,8.253,0,0,0,8.253-8.248V527.563a13.857,13.857,0,0,1,13.843-13.852h26.507a13.857,13.857,0,0,1,13.843,13.843v66.282a8.248,8.248,0,0,0,8.248,8.248h37.7A152.757,152.757,0,0,0,460.786,546.356Z" transform="translate(-126.777 -210.714)" fill="#f0efef"/>
    </g>
  </g>
</svg>
