<svg xmlns="http://www.w3.org/2000/svg" xmlns:xlink="http://www.w3.org/1999/xlink" width="500" height="500" viewBox="0 0 500 500">
  <defs>
    <clipPath id="clip-ic-idcard-_20">
      <rect width="500" height="500"/>
    </clipPath>
  </defs>
  <g id="ic-idcard-_20" data-name="ic-idcard- – 20" clip-path="url(#clip-ic-idcard-_20)">
    <rect width="500" height="500" fill="rgba(255,255,255,0)"/>
    <g id="ketentuan-45" transform="translate(-1 62)">
      <path id="Path_400" data-name="Path 400" d="M443.634,135H57.411A57.463,57.463,0,0,0,0,192.411V453.372a57.463,57.463,0,0,0,57.411,57.412H443.634a57.463,57.463,0,0,0,57.411-57.412V192.411A57.463,57.463,0,0,0,443.634,135ZM156.577,218.507A52.192,52.192,0,1,1,104.384,270.7a52.192,52.192,0,0,1,52.192-52.192Zm93.946,193.111a15.662,15.662,0,0,1-15.658,15.657H78.288a15.662,15.662,0,0,1-15.658-15.657V401.18a57.458,57.458,0,0,1,57.411-57.412h73.069a57.458,57.458,0,0,1,57.411,57.412Zm172.234,15.657H307.934a15.658,15.658,0,1,1,0-31.315H422.757a15.658,15.658,0,1,1,0,31.315Zm0-83.508H307.934a15.658,15.658,0,1,1,0-31.315H422.757a15.658,15.658,0,1,1,0,31.315Zm0-83.507H307.934a15.658,15.658,0,0,1,0-31.315H422.757a15.658,15.658,0,0,1,0,31.315Z" transform="translate(0 -135)" fill="#2a4095"/>
      <path id="Path_401" data-name="Path 401" d="M345.109,644.578a223.873,223.873,0,0,0-9.223-63.8H307.934a15.658,15.658,0,0,1,0-31.315h16.015A224.694,224.694,0,0,0,206.983,437.725a52.192,52.192,0,0,1-102.6-13.527q0-1.444.079-2.857A222.572,222.572,0,0,0,0,456.365v150.5a57.463,57.463,0,0,0,57.411,57.412H344.237Q345.1,654.539,345.109,644.578Zm-94.586-79.462a15.662,15.662,0,0,1-15.658,15.657H78.288a15.662,15.662,0,0,1-15.658-15.657V554.678a57.459,57.459,0,0,1,57.411-57.412h73.069a57.459,57.459,0,0,1,57.411,57.412Z" transform="translate(0 -288.498)" fill="#455daa"/>
    </g>
  </g>
</svg>
