<svg xmlns="http://www.w3.org/2000/svg" xmlns:xlink="http://www.w3.org/1999/xlink" width="500" height="500" viewBox="0 0 500 500">
  <defs>
    <clipPath id="clip-ic-ketentuan-_19">
      <rect width="500" height="500"/>
    </clipPath>
  </defs>
  <g id="ic-ketentuan-_19" data-name="ic-ketentuan- – 19" clip-path="url(#clip-ic-ketentuan-_19)">
    <rect width="500" height="500" fill="rgba(255,255,255,0)"/>
    <g id="aa-05" transform="translate(64)">
      <path id="Path_497" data-name="Path 497" d="M530.723,37.909h-36.57a10.277,10.277,0,0,1-9.629-7.7A37.228,37.228,0,0,0,446.652.043,37.866,37.866,0,0,0,408.791,30.85a9.624,9.624,0,0,1-9.628,7.059H363.87v64.174H530.723Z" transform="translate(-261.183 -0.019)" fill="#2a4095"/>
      <path id="Path_498" data-name="Path 498" d="M514.256,558.962V191.247a26.307,26.307,0,0,0-26.238-26.386c-.667,0-1.333.023-2,.069H430.83v32.728c0,5.134-3.208,12.193-8.332,12.193H233.166c-5.134,0-7.7-7.059-7.7-12.193V164.917H170.288a26.317,26.317,0,0,0-28.168,24.317c-.046.667-.069,1.333-.069,2V558.944a28.876,28.876,0,0,0,28.21,29.539H486.023a28.881,28.881,0,0,0,28.238-29.506ZM276.175,474.249,226.116,521.1a8.964,8.964,0,0,1-6.416,3.208,10.291,10.291,0,0,1-7.059-3.208l-26.307-26.955a9.767,9.767,0,0,1,14.114-13.476L219.7,501.2l43.639-41.07a9.629,9.629,0,0,1,12.837,14.119Zm0-102.678h0l-50.059,46.851a8.962,8.962,0,0,1-6.416,3.208,10.289,10.289,0,0,1-7.059-3.208l-26.307-26.951a9.767,9.767,0,0,1,14.114-13.48L219.7,398.531l43.639-41.074a9.629,9.629,0,0,1,12.837,14.119Zm0-102.679-50.059,46.852a8.962,8.962,0,0,1-6.416,3.208,10.271,10.271,0,0,1-7.059-3.208l-26.307-26.951a9.767,9.767,0,0,1,14.114-13.475L219.7,295.852l43.639-41.074A9.629,9.629,0,0,1,276.175,268.9ZM462.919,511.458h-147.6a9.627,9.627,0,1,1,0-19.255l147.6,0a9.627,9.627,0,1,1,0,19.255Zm0-102.674h-147.6a9.627,9.627,0,1,1,0-19.255l147.6,0a9.628,9.628,0,1,1,0,19.255Zm0-102.679h-147.6a9.628,9.628,0,1,1,0-19.255l147.6,0a9.627,9.627,0,1,1,0,19.255Z" transform="translate(-142.043 -88.545)" fill="#2a4095"/>
      <path id="Path_499" data-name="Path 499" d="M514.256,558.962V191.247a26.307,26.307,0,0,0-26.238-26.386c-.667,0-1.333.023-2,.069H430.83v32.728c0,5.134-3.208,12.193-8.332,12.193H233.166c-5.134,0-7.7-7.059-7.7-12.193V164.917H170.288a26.317,26.317,0,0,0-28.168,24.317c-.046.667-.069,1.333-.069,2V558.944a28.876,28.876,0,0,0,28.21,29.539H486.023a28.881,28.881,0,0,0,28.238-29.506ZM276.175,474.249,226.116,521.1a8.964,8.964,0,0,1-6.416,3.208,10.291,10.291,0,0,1-7.059-3.208l-26.307-26.955a9.767,9.767,0,0,1,14.114-13.476L219.7,501.2l43.639-41.07a9.629,9.629,0,0,1,12.837,14.119Zm0-102.678h0l-50.059,46.851a8.962,8.962,0,0,1-6.416,3.208,10.289,10.289,0,0,1-7.059-3.208l-26.307-26.951a9.767,9.767,0,0,1,14.114-13.48L219.7,398.531l43.639-41.074a9.629,9.629,0,0,1,12.837,14.119Zm0-102.679-50.059,46.852a8.962,8.962,0,0,1-6.416,3.208,10.271,10.271,0,0,1-7.059-3.208l-26.307-26.951a9.767,9.767,0,0,1,14.114-13.475L219.7,295.852l43.639-41.074A9.629,9.629,0,0,1,276.175,268.9ZM462.919,511.458h-147.6a9.627,9.627,0,1,1,0-19.255l147.6,0a9.627,9.627,0,1,1,0,19.255Zm0-102.674h-147.6a9.627,9.627,0,1,1,0-19.255l147.6,0a9.628,9.628,0,1,1,0,19.255Zm0-102.679h-147.6a9.628,9.628,0,1,1,0-19.255l147.6,0a9.627,9.627,0,1,1,0,19.255Z" transform="translate(-142.043 -88.545)" fill="#2a4095"/>
      <path id="Path_500" data-name="Path 500" d="M530.723,37.909h-36.57a10.277,10.277,0,0,1-9.629-7.7A37.228,37.228,0,0,0,446.652.043,37.866,37.866,0,0,0,408.791,30.85a9.624,9.624,0,0,1-9.628,7.059H363.87v64.174H530.723Z" transform="translate(-261.183 -0.019)" fill="#2a4095"/>
      <path id="Path_501" data-name="Path 501" d="M514.256,558.962V191.247a26.307,26.307,0,0,0-26.238-26.386c-.667,0-1.333.023-2,.069H430.83v32.728c0,5.134-3.208,12.193-8.332,12.193H233.166c-5.134,0-7.7-7.059-7.7-12.193V164.917H170.288a26.317,26.317,0,0,0-28.168,24.317c-.046.667-.069,1.333-.069,2V558.944a28.876,28.876,0,0,0,28.21,29.539H486.023a28.881,28.881,0,0,0,28.238-29.506ZM276.175,474.249,226.116,521.1a8.964,8.964,0,0,1-6.416,3.208,10.291,10.291,0,0,1-7.059-3.208l-26.307-26.955a9.767,9.767,0,0,1,14.114-13.476L219.7,501.2l43.639-41.07a9.629,9.629,0,0,1,12.837,14.119Zm0-102.678h0l-50.059,46.851a8.962,8.962,0,0,1-6.416,3.208,10.289,10.289,0,0,1-7.059-3.208l-26.307-26.951a9.767,9.767,0,0,1,14.114-13.48L219.7,398.531l43.639-41.074a9.629,9.629,0,0,1,12.837,14.119Zm0-102.679-50.059,46.852a8.962,8.962,0,0,1-6.416,3.208,10.271,10.271,0,0,1-7.059-3.208l-26.307-26.951a9.767,9.767,0,0,1,14.114-13.475L219.7,295.852l43.639-41.074A9.629,9.629,0,0,1,276.175,268.9ZM462.919,511.458h-147.6a9.627,9.627,0,1,1,0-19.255l147.6,0a9.627,9.627,0,1,1,0,19.255Zm0-102.674h-147.6a9.627,9.627,0,1,1,0-19.255l147.6,0a9.628,9.628,0,1,1,0,19.255Zm0-102.679h-147.6a9.628,9.628,0,1,1,0-19.255l147.6,0a9.627,9.627,0,1,1,0,19.255Z" transform="translate(-142.043 -88.545)" fill="#2a4095"/>
      <path id="Path_502" data-name="Path 502" d="M502.611,767.688a263.314,263.314,0,0,0-70.423-173.995H315.331a9.628,9.628,0,1,1,0-19.257h97.046a264.609,264.609,0,0,0-270.3-47.217V743.863a28.878,28.878,0,0,0,28.2,29.515H486.035A28.747,28.747,0,0,0,502.611,767.688ZM276.187,659.15,226.128,706a8.956,8.956,0,0,1-6.416,3.208,10.285,10.285,0,0,1-7.06-3.208l-26.307-26.954a9.768,9.768,0,0,1,14.114-13.477L219.712,686.1l43.639-41.069a9.628,9.628,0,0,1,12.837,14.118Zm0-102.679-50.059,46.848a8.97,8.97,0,0,1-6.416,3.208,10.3,10.3,0,0,1-7.06-3.208l-26.307-26.952a9.767,9.767,0,0,1,14.114-13.48l19.253,20.539,43.639-41.073a9.628,9.628,0,0,1,12.837,14.118Zm186.744,139.9h-147.6a9.627,9.627,0,1,1,0-19.255l147.6,0a9.627,9.627,0,1,1,0,19.255Z" transform="translate(-142.054 -273.441)" fill="#455daa"/>
    </g>
  </g>
</svg>
