<svg xmlns="http://www.w3.org/2000/svg" xmlns:xlink="http://www.w3.org/1999/xlink" width="500" height="500" viewBox="0 0 500 500">
  <defs>
    <clipPath id="clip-ic-koper-_17">
      <rect width="500" height="500"/>
    </clipPath>
  </defs>
  <g id="ic-koper-_17" data-name="ic-koper- – 17" clip-path="url(#clip-ic-koper-_17)">
    <rect width="500" height="500" fill="rgba(255,255,255,0)"/>
    <g id="icon-09" transform="translate(89)">
      <path id="Path_185" data-name="Path 185" d="M499.716,119.187H426.442V29.308H441.1A14.654,14.654,0,0,0,441.1,0H265.25a14.654,14.654,0,0,0,0,29.308H279.9v89.879H206.63A14.663,14.663,0,0,0,192,133.85v322.4A14.662,14.662,0,0,0,206.653,470.9H250.62v14.654a14.654,14.654,0,1,0,29.308,0V470.9H426.442v14.654a14.654,14.654,0,1,0,29.307,0V470.9h43.967a14.663,14.663,0,0,0,14.654-14.654V133.85A14.663,14.663,0,0,0,499.716,119.187Zm-190.5-89.879h87.923v89.879H309.211ZM279.9,368.334a14.654,14.654,0,0,1-29.309,0V221.77a14.654,14.654,0,0,1,29.309,0Zm87.922,0a14.654,14.654,0,1,1-29.308,0V221.77a14.654,14.654,0,1,1,29.308,0Zm87.923,0a14.654,14.654,0,1,1-29.307,0V221.77a14.654,14.654,0,1,1,29.307,0Z" transform="translate(-192 0)" fill="#2a4095"/>
      <path id="Path_186" data-name="Path 186" d="M455.751,528.92a14.654,14.654,0,1,1-29.309,0V440.1A321.441,321.441,0,0,0,192,299.17V616.85A14.663,14.663,0,0,0,206.654,631.5H250.62v14.654a14.654,14.654,0,0,0,29.307,0V631.5H426.442v14.654a14.654,14.654,0,0,0,29.309,0V631.5h24.86q.232-6.164.232-12.375a320.558,320.558,0,0,0-25.093-124.744Zm-175.846,0a14.654,14.654,0,1,1-29.307,0V382.379a14.654,14.654,0,0,1,29.307,0Zm87.923,0a14.654,14.654,0,1,1-29.308,0V382.379a14.654,14.654,0,0,1,29.308,0Z" transform="translate(-192 -160.609)" fill="#455daa"/>
    </g>
  </g>
</svg>
