<svg xmlns="http://www.w3.org/2000/svg" xmlns:xlink="http://www.w3.org/1999/xlink" width="500" height="500" viewBox="0 0 500 500">
  <defs>
    <linearGradient id="linear-gradient" y1="0.5" x2="1" y2="0.5" gradientUnits="objectBoundingBox">
      <stop offset="0" stop-color="#465daa"/>
      <stop offset="1" stop-color="#284294"/>
    </linearGradient>
    <!-- <linearGradient id="linear-gradient-2" x1="0" y1="0.5" x2="1" y2="0.5" xlink:href="#linear-gradient"/>
    <linearGradient id="linear-gradient-3" x1="0" y1="0.5" x2="1" y2="0.5" xlink:href="#linear-gradient"/>
    <linearGradient id="linear-gradient-4" x1="0.767" y1="1.024" x2="0.235" y2="0.115" xlink:href="#linear-gradient"/> -->
    <clipPath id="clip-ic-memberactive">
      <rect width="500" height="500"/>
    </clipPath>
  </defs>
  <g id="ic-memberactive" clip-path="url(#clip-ic-memberactive)">
    <rect width="500" height="500" fill="rgba(255,255,255,0)"/>
    <g id="logo_member-49" data-name="logo member-49" transform="translate(-79.74 -0.041)">
      <path id="Path_2755" data-name="Path 2755" d="M449.09,311.645a33.061,33.061,0,0,0,26.487-30.936c.051-1.167.093-2.315.12-3.5a32.984,32.984,0,0,1,12.783-25.774q4.042-3.042,7.981-6.482c10.047-8.834,13.427-22.987,9.172-35.673q-2.778-8.278-6.158-16.274a33.487,33.487,0,0,1,0-26.094q3.375-7.986,6.158-16.274c4.246-12.69.875-26.853-9.172-35.65q-3.93-3.463-7.981-6.482A32.99,32.99,0,0,1,475.7,82.734q-.041-1.75-.12-3.5a33.08,33.08,0,0,0-28.131-31.256l-1.6-.227a33.067,33.067,0,0,1-24.793-17.593l-.208-.4a32.987,32.987,0,0,0-38.344-16.4l-1.829.556A32.621,32.621,0,0,1,351.017,8.12c-.431-.347-.871-.694-1.31-1.037a33.122,33.122,0,0,0-41.1.213L307.33,8.323a32.6,32.6,0,0,1-29.6,6.1c-.6-.176-1.208-.343-1.815-.514a32.988,32.988,0,0,0-38.191,16.765l-.194.384a33.1,33.1,0,0,1-24.6,17.89l-1.625.255a33.088,33.088,0,0,0-27.723,31.547c-.047,1.32-.079,2.644-.093,3.963a32.366,32.366,0,0,1-12.214,25.464q-4.194,3.241-8.282,6.945c-9.889,8.982-13.079,23.149-8.723,35.775q.926,2.644,1.884,5.259,1.7,4.56,3.593,9.037a32.8,32.8,0,0,1,0,25.5q-1.89,4.472-3.593,9.033-.972,2.616-1.884,5.264c-4.357,12.635-1.167,26.788,8.723,35.775q4.083,3.7,8.282,6.945a32.309,32.309,0,0,1,12.214,25.464q0,1.982.093,3.963a33.084,33.084,0,0,0,27.547,31.524L148.74,450.734,228.7,420.1l30.686,79.943,62.767-140.982a33.22,33.22,0,0,0,15.339-.241l62.859,141.209,30.737-79.943,79.943,30.686Z" transform="translate(0 0)" fill="url(#linear-gradient)"/>
      <!-- <path id="Path_2756" data-name="Path 2756" d="M705.514,333.511a120.993,120.993,0,1,0-19.922,222.925l-32.528-73.058a33.061,33.061,0,0,0,26.486-30.937c.051-1.167.093-2.315.121-3.5a32.979,32.979,0,0,1,12.782-25.774q4.043-3.042,7.982-6.482c10.047-8.834,13.426-22.987,9.172-35.673q-2.78-8.278-6.157-16.273a33.472,33.472,0,0,1,0-26.094C704.181,336.937,704.843,335.219,705.514,333.511Z" transform="translate(-203.992 -171.733)" fill="url(#linear-gradient-2)"/>
      <path id="Path_2757" data-name="Path 2757" d="M244.171,434.455a147.008,147.008,0,1,0-55.882-282.992,33.341,33.341,0,0,0-.5,4.685c-.046,1.32-.079,2.644-.092,3.963a32.364,32.364,0,0,1-12.214,25.464q-4.194,3.241-8.278,6.945c-9.894,8.982-13.084,23.149-8.727,35.774q.926,2.644,1.884,5.26,1.7,4.56,3.593,9.037a32.8,32.8,0,0,1,0,25.5q-1.889,4.472-3.593,9.032-.972,2.617-1.884,5.264c-4.356,12.635-1.167,26.788,8.727,35.775q4.079,3.7,8.278,6.945A32.308,32.308,0,0,1,187.7,350.573q0,1.982.092,3.963a33.085,33.085,0,0,0,27.548,31.525l-18.121,40.691A146.739,146.739,0,0,0,244.171,434.455Z" transform="translate(-4.205 -75.397)" fill="url(#linear-gradient-3)"/>
      <path id="Path_2758" data-name="Path 2758" d="M651.4,174.868q3.374-7.986,6.157-16.274c4.246-12.69.875-26.853-9.172-35.65q-3.931-3.463-7.982-6.482a32.992,32.992,0,0,1-12.783-25.774q-.042-1.75-.12-3.5a33.079,33.079,0,0,0-28.131-31.256l-1.6-.227a33.065,33.065,0,0,1-24.792-17.593l-.208-.4a32.987,32.987,0,0,0-38.344-16.38l-1.829.556a32.621,32.621,0,0,1-29.654-5.792c-.431-.347-.87-.694-1.31-1.037-.074-.06-.153-.106-.227-.167A121.008,121.008,0,1,0,649.916,196.522,33.467,33.467,0,0,1,651.4,174.868Z" transform="translate(-151.923 -7.974)" fill="url(#linear-gradient-4)"/> -->
      <path id="Path_2759" data-name="Path 2759" d="M526.616,273.514a4.528,4.528,0,0,0-4.019-4.5l-53.3-5.95-22.506-48.678a4.523,4.523,0,0,0-8.227.028l-22.131,48.844-53.242,6.361a4.523,4.523,0,0,0-2.515,7.834l39.636,36.15c-.9,4.556-10.408,52.6-10.408,52.6a4.727,4.727,0,0,0-.083.88,4.523,4.523,0,0,0,6.764,3.931l46.613-26.51L490,370.675a4.528,4.528,0,0,0,6.732-3.954,4.345,4.345,0,0,0-.093-.925s-9.875-47.96-10.81-52.53l39.353-36.441A4.533,4.533,0,0,0,526.616,273.514Z" transform="translate(-113.023 -113.699)" fill="#fff"/>
    </g>
  </g>
</svg>
