<svg xmlns="http://www.w3.org/2000/svg" xmlns:xlink="http://www.w3.org/1999/xlink" width="500" height="500" viewBox="0 0 500 500">
  <defs>
    <linearGradient id="linear-gradient" y1="0.5" x2="1" y2="0.5" gradientUnits="objectBoundingBox">
      <stop offset="0" stop-color="#dcdbdb"/>
      <stop offset="1" stop-color="#b5b6b6"/>
    </linearGradient>
    <linearGradient id="linear-gradient-2" x1="0" y1="0.5" x2="1" y2="0.5" xlink:href="#linear-gradient"/>
    <linearGradient id="linear-gradient-3" x1="0" y1="0.5" x2="1" y2="0.5" xlink:href="#linear-gradient"/>
    <linearGradient id="linear-gradient-4" x1="0.767" y1="1.024" x2="0.235" y2="0.115" xlink:href="#linear-gradient"/>
    <clipPath id="clip-ic-memberdisabled">
      <rect width="500" height="500"/>
    </clipPath>
  </defs>
  <g id="ic-memberdisabled" clip-path="url(#clip-ic-memberdisabled)">
    <rect width="500" height="500" fill="rgba(255,255,255,0)"/>
    <g id="medal-37" transform="translate(-79.74 -0.042)">
      <path id="Path_465" data-name="Path 465" d="M449.106,311.662a33.063,33.063,0,0,0,26.489-30.938c.051-1.167.092-2.315.12-3.5A32.985,32.985,0,0,1,488.5,251.448q4.042-3.042,7.982-6.482c10.047-8.834,13.427-22.988,9.172-35.675q-2.778-8.279-6.158-16.275a33.487,33.487,0,0,1,0-26.1q3.375-7.987,6.158-16.275c4.245-12.691.875-26.854-9.172-35.651q-3.931-3.463-7.982-6.482a32.992,32.992,0,0,1-12.783-25.776q-.042-1.75-.12-3.5a33.082,33.082,0,0,0-28.132-31.258l-1.6-.227a33.068,33.068,0,0,1-24.794-17.594l-.208-.4a32.989,32.989,0,0,0-38.346-16.4l-1.829.556A32.624,32.624,0,0,1,351.027,8.12c-.431-.347-.87-.695-1.31-1.037a33.124,33.124,0,0,0-41.106.213l-1.273,1.028a32.6,32.6,0,0,1-29.6,6.1c-.6-.176-1.209-.343-1.815-.514A32.989,32.989,0,0,0,237.73,30.678l-.194.384a33.106,33.106,0,0,1-24.6,17.891l-1.625.255a33.091,33.091,0,0,0-27.725,31.549c-.046,1.32-.079,2.644-.093,3.963a32.366,32.366,0,0,1-12.214,25.465q-4.194,3.241-8.283,6.945c-9.889,8.982-13.08,23.15-8.723,35.776q.925,2.644,1.884,5.26,1.7,4.561,3.593,9.038a32.8,32.8,0,0,1,0,25.5q-1.889,4.473-3.593,9.033-.972,2.616-1.884,5.264c-4.357,12.635-1.167,26.79,8.723,35.776q4.084,3.7,8.283,6.945a32.309,32.309,0,0,1,12.214,25.465q0,1.982.093,3.963a33.086,33.086,0,0,0,27.549,31.526L148.74,450.759l79.965-30.637,30.688,79.947,62.77-140.99a33.22,33.22,0,0,0,15.339-.241l62.862,141.217L431.1,420.108,511.052,450.8Z" transform="translate(0)" fill="url(#linear-gradient)"/>
      <path id="Path_466" data-name="Path 466" d="M705.525,333.512A121,121,0,1,0,685.6,556.449l-32.532-73.063a33.063,33.063,0,0,0,26.489-30.938c.051-1.167.093-2.314.121-3.5a32.983,32.983,0,0,1,12.783-25.776q4.042-3.042,7.983-6.481c10.048-8.834,13.427-22.989,9.172-35.675q-2.777-8.277-6.156-16.274a33.476,33.476,0,0,1,0-26.095C704.19,336.938,704.853,335.221,705.525,333.512Z" transform="translate(-203.982 -171.725)" fill="url(#linear-gradient-2)"/>
      <path id="Path_467" data-name="Path 467" d="M244.176,434.472a147.016,147.016,0,1,0-55.885-283.008,33.28,33.28,0,0,0-.5,4.686c-.046,1.32-.079,2.644-.093,3.963a32.365,32.365,0,0,1-12.214,25.465q-4.194,3.241-8.278,6.945c-9.894,8.982-13.084,23.15-8.728,35.776q.926,2.644,1.884,5.26,1.7,4.561,3.593,9.038a32.8,32.8,0,0,1,0,25.5q-1.889,4.472-3.593,9.033-.972,2.616-1.884,5.264c-4.357,12.636-1.166,26.79,8.728,35.777q4.079,3.7,8.278,6.945A32.308,32.308,0,0,1,187.7,350.585q0,1.982.093,3.963a33.086,33.086,0,0,0,27.549,31.526l-18.122,40.694A146.733,146.733,0,0,0,244.176,434.472Z" transform="translate(-4.205 -75.393)" fill="url(#linear-gradient-3)"/>
      <path id="Path_468" data-name="Path 468" d="M651.411,174.877q3.375-7.987,6.158-16.275c4.245-12.691.875-26.854-9.173-35.651q-3.931-3.463-7.982-6.482A32.993,32.993,0,0,1,627.63,90.693q-.042-1.75-.12-3.5a33.083,33.083,0,0,0-28.132-31.258l-1.6-.227A33.066,33.066,0,0,1,572.982,38.11l-.208-.4A32.99,32.99,0,0,0,534.427,21.33l-1.829.556a32.623,32.623,0,0,1-29.655-5.792c-.43-.347-.871-.694-1.311-1.037-.074-.06-.152-.106-.227-.167A121.015,121.015,0,1,0,649.929,196.532,33.465,33.465,0,0,1,651.411,174.877Z" transform="translate(-151.915 -7.974)" fill="url(#linear-gradient-4)"/>
      <path id="Path_469" data-name="Path 469" d="M526.625,273.517a4.529,4.529,0,0,0-4.019-4.5l-53.3-5.95L446.8,214.391a4.524,4.524,0,0,0-8.228.028l-22.132,48.847-53.245,6.362a4.524,4.524,0,0,0-2.515,7.834l39.638,36.151c-.9,4.556-10.408,52.607-10.408,52.607a4.724,4.724,0,0,0-.083.88,4.523,4.523,0,0,0,6.765,3.931l46.615-26.511,46.8,26.164a4.529,4.529,0,0,0,6.732-3.954,4.365,4.365,0,0,0-.093-.926s-9.875-47.963-10.811-52.533l39.355-36.443A4.533,4.533,0,0,0,526.625,273.517Z" transform="translate(-113.018 -113.693)" fill="#fff"/>
    </g>
  </g>
</svg>
