<svg xmlns="http://www.w3.org/2000/svg" xmlns:xlink="http://www.w3.org/1999/xlink" width="500" height="500" viewBox="0 0 500 500">
  <defs>
    <clipPath id="clip-ic-myorder-disabled">
      <rect width="500" height="500"/>
    </clipPath>
  </defs>
  <g id="ic-myorder-disabled" clip-path="url(#clip-ic-myorder-disabled)">
    <rect width="500" height="500" fill="rgba(255,255,255,0)"/>
    <g id="foot_icon-36" data-name="foot icon-36" transform="translate(0 -0.13)">
      <circle id="Ellipse_191" data-name="Ellipse 191" cx="250" cy="250" r="250" transform="translate(0 0.13)" fill="#d3d3d3"/>
      <path id="Path_2778" data-name="Path 2778" d="M440.1,248.81H327.139a78.34,78.34,0,0,0-78.329,78.315V440.1a78.34,78.34,0,0,0,78.315,78.329H440.1a78.34,78.34,0,0,0,78.329-78.315V327.139a78.34,78.34,0,0,0-78.315-78.329ZM354.68,439.764l-26.616,26.625a9.356,9.356,0,0,1-13.231,0l-12.694-12.676a9.355,9.355,0,1,1,13.228-13.233l6.059,6.062,20.009-20.009a9.356,9.356,0,1,1,13.232,13.232Zm0-62.838-26.616,26.625a9.356,9.356,0,0,1-13.231,0l-12.694-12.676a9.355,9.355,0,1,1,13.228-13.233l6.059,6.057,20.023-19.986a9.358,9.358,0,0,1,13.232,13.236Zm0-62.838-26.616,26.62a9.352,9.352,0,0,1-13.231,0l-12.694-12.671A9.356,9.356,0,1,1,315.366,314.8l6.06,6.06,20.009-20.009a9.358,9.358,0,1,1,13.231,13.236ZM458.472,455.815H383.62a9.356,9.356,0,1,1,0-18.713h74.852a9.356,9.356,0,0,1,0,18.713Zm0-62.838H383.62a9.356,9.356,0,1,1,0-18.713h74.852a9.356,9.356,0,0,1,0,18.713Zm0-62.838H383.62a9.356,9.356,0,1,1,0-18.713h74.852a9.356,9.356,0,1,1,0,18.713Z" transform="translate(-133.62 -133.55)" fill="#fff"/>
      <path id="Path_2779" data-name="Path 2779" d="M438.856,639.747a125.3,125.3,0,0,0,4.852-62.616H383.62a9.357,9.357,0,0,1,0-18.713h55.2a124.282,124.282,0,0,0-26.6-44.125H383.62a9.356,9.356,0,1,1,0-18.713h6.6a124.444,124.444,0,0,0-141.407,2.375v63.463a78.34,78.34,0,0,0,78.315,78.329ZM302.139,498.96a9.347,9.347,0,0,1,13.232,0l6.056,6.056,20.023-19.986a9.358,9.358,0,0,1,13.232,13.236l-26.616,26.6a9.357,9.357,0,0,1-13.231,0l-12.694-12.676a9.347,9.347,0,0,1,0-13.231Zm12.685,88.745L302.139,575.03A9.356,9.356,0,1,1,315.37,561.8l6.055,6.06,20.009-20.009a9.356,9.356,0,1,1,13.232,13.232l-26.6,26.625a9.356,9.356,0,0,1-13.241,0Z" transform="translate(-133.62 -254.867)" fill="#f0efef"/>
    </g>
  </g>
</svg>
