<svg xmlns="http://www.w3.org/2000/svg" xmlns:xlink="http://www.w3.org/1999/xlink" width="500" height="500" viewBox="0 0 500 500">
  <defs>
    <clipPath id="clip-ic-cancel_1">
      <rect width="500" height="500"/>
    </clipPath>
  </defs>
  <g id="ic-cancel_1" data-name="ic-cancel – 1" clip-path="url(#clip-ic-cancel_1)">
    <rect width="500" height="500" fill="rgba(255,255,255,0)"/>
    <g id="detai_order-28" data-name="detai order-28" transform="translate(0 92.091)">
      <path id="Path_287" data-name="Path 287" d="M1.58,772.31v3.1c0,31.2,19.817,56.573,44.176,56.573H457.4c24.358,0,44.176-25.378,44.176-56.573v-3.1Z" transform="translate(-1.58 -496.906)" fill="#2a4095"/>
      <path id="Path_288" data-name="Path 288" d="M457.4,179.19H45.756C21.4,179.19,1.58,204.566,1.58,235.75v3.1h500v-3.1C501.58,204.566,481.763,179.19,457.4,179.19Z" transform="translate(-1.58 -179.19)" fill="#2a4095"/>
      <path id="Path_289" data-name="Path 289" d="M150.887,537.378q-1.987-1.653-6.965-1.648h-9.6v12.4h9.644q4.881,0,6.886-1.73a5.861,5.861,0,0,0,2-4.644A5.4,5.4,0,0,0,150.887,537.378Z" transform="translate(-72.686 -370.176)" fill="#455daa"/>
      <path id="Path_290" data-name="Path 290" d="M771.07,515.126h13.442l-6.76-22Z" transform="translate(-413.779 -347.357)" fill="#2a4095"/>
      <path id="Path_291" data-name="Path 291" d="M148.684,495.74a5.561,5.561,0,0,0,1.732-4.4,5.246,5.246,0,0,0-1.732-4.178q-1.732-1.5-6.037-1.5H134.29v11.608h8.224Q146.952,497.263,148.684,495.74Z" transform="translate(-72.67 -343.356)" fill="#455daa"/>
      <path id="Path_292" data-name="Path 292" d="M926.155,495.74a5.567,5.567,0,0,0,1.731-4.4,5.25,5.25,0,0,0-1.731-4.178q-1.739-1.5-6.039-1.5H911.76v11.608H920Q924.407,497.263,926.155,495.74Z" transform="translate(-489.143 -343.356)" fill="#2a4095"/>
      <path id="Path_293" data-name="Path 293" d="M928.34,537.378q-1.985-1.653-6.966-1.648h-9.585v12.4h9.641q4.878,0,6.887-1.73a5.85,5.85,0,0,0,2-4.644A5.405,5.405,0,0,0,928.34,537.378Z" transform="translate(-489.16 -370.176)" fill="#2a4095"/>
      <path id="Path_294" data-name="Path 294" d="M1.58,359.31v167.8h500V359.31Zm96.9,98.61a16.244,16.244,0,0,1-6.036,6.036,19.564,19.564,0,0,1-7.178,2,82.515,82.515,0,0,1-8.474.836H44.144V405.6H79.535q8.822,0,13.581,4.383a14.183,14.183,0,0,1,4.736,10.851,13.671,13.671,0,0,1-3.38,9.287,14.97,14.97,0,0,1-6.593,4.091q6.593,1.588,9.7,5.446a14.967,14.967,0,0,1,3.111,9.7A16.653,16.653,0,0,1,98.479,457.92Zm76.372,8.851h-17.18V425.993a52.271,52.271,0,0,1-8.088,5.145,63.09,63.09,0,0,1-9.788,3.757V420.964q8.687-2.785,13.465-6.718a27.392,27.392,0,0,0,7.508-9.682h14.064Zm68.255,0h-51.02a31.973,31.973,0,0,1,5.321-14.214q4.453-6.649,16.674-15.712,7.476-5.573,9.56-8.428a9.379,9.379,0,0,0,2.085-5.47,6.38,6.38,0,0,0-2.066-4.778,7.871,7.871,0,0,0-10.517.065q-2.071,2.043-2.786,7.221l-17.027-1.395q1-7.178,3.673-11.2a17.029,17.029,0,0,1,7.531-6.18q4.861-2.144,13.465-2.145,8.971,0,13.962,2.043a17,17,0,0,1,7.842,6.282,16.558,16.558,0,0,1,2.86,9.492,19.424,19.424,0,0,1-3.278,10.679q-3.25,5.107-11.914,11.186-5.131,3.551-6.863,4.969t-4.072,3.713h26.545ZM297.59,457.6a18.738,18.738,0,0,1-8.051,7.555q-5.256,2.659-13.814,2.66-8.358,0-13.168-1.96a19.653,19.653,0,0,1-7.931-5.738,26.432,26.432,0,0,1-4.778-9.483l16.985-2.252q1,5.129,3.111,7.113a7.493,7.493,0,0,0,5.363,1.983,7.375,7.375,0,0,0,5.7-2.5,9.548,9.548,0,0,0,2.271-6.677,9.28,9.28,0,0,0-2.187-6.594,7.715,7.715,0,0,0-5.948-2.322,21.622,21.622,0,0,0-5.511,1l.878-12.143a16.455,16.455,0,0,0,2.21.208,7.746,7.746,0,0,0,5.572-2.131,6.733,6.733,0,0,0,2.233-5.047,6.032,6.032,0,0,0-1.667-4.466,6.188,6.188,0,0,0-4.592-1.668,6.751,6.751,0,0,0-4.885,1.81q-1.857,1.82-2.544,6.367l-16.066-2.879a20.181,20.181,0,0,1,7.7-11.77q5.7-4.1,16.13-4.087,11.98,0,17.319,4.462a14.027,14.027,0,0,1,5.34,11.228,12.538,12.538,0,0,1-2.168,7.15,18.4,18.4,0,0,1-6.552,5.632,19.262,19.262,0,0,1,5.423,2.048,13.224,13.224,0,0,1,4.741,4.946,14.98,14.98,0,0,1,1.69,7.321,20.387,20.387,0,0,1-2.8,10.235Zm81.721,9.161-3.083-10.089H354.766l-2.981,10.1H332.479l23-61.175H376.1l22.989,61.184Zm80.184-8.85a16.311,16.311,0,0,1-6.036,6.036,19.572,19.572,0,0,1-7.178,2,82.683,82.683,0,0,1-8.474.835H405.14V405.6h35.386q8.855,0,13.586,4.383a14.183,14.183,0,0,1,4.736,10.851,13.671,13.671,0,0,1-3.38,9.287,15.006,15.006,0,0,1-6.593,4.091q6.6,1.588,9.7,5.446a14.982,14.982,0,0,1,3.106,9.7,16.651,16.651,0,0,1-2.21,8.557Z" transform="translate(-1.58 -275.674)" fill="#2a4095"/>
      <path id="Path_295" data-name="Path 295" d="M1.58,775.429C1.58,806.622,21.4,832,45.756,832H267.144q.1-3.613.107-7.25a252.148,252.148,0,0,0-5.484-52.417H1.58Z" transform="translate(-1.58 -496.916)" fill="#455daa"/>
      <path id="Path_296" data-name="Path 296" d="M1.58,527.131H255.411a249.929,249.929,0,0,0-28.635-60.364H192.086a31.963,31.963,0,0,1,5.321-14.213q3.25-4.856,10.638-10.991a252.825,252.825,0,0,0-33.194-32.62v57.847h-17.18V426.014a52.271,52.271,0,0,1-8.088,5.144,63.027,63.027,0,0,1-9.788,3.758V420.984q8.687-2.785,13.465-6.718a27.391,27.391,0,0,0,7.508-9.681H169.3A249.934,249.934,0,0,0,74.581,359.35h-73ZM44.144,405.62H79.535q8.822,0,13.581,4.384a14.186,14.186,0,0,1,4.736,10.852,13.673,13.673,0,0,1-3.38,9.287,14.983,14.983,0,0,1-6.593,4.09q6.593,1.589,9.7,5.447a14.967,14.967,0,0,1,3.111,9.7,16.657,16.657,0,0,1-2.215,8.553,16.254,16.254,0,0,1-6.036,6.036,19.532,19.532,0,0,1-7.178,2,82.555,82.555,0,0,1-8.474.835H44.144Z" transform="translate(-1.58 -275.696)" fill="#455daa"/>
      <path id="Path_297" data-name="Path 297" d="M464.851,560.25l-.312.3h.539C465,560.448,464.929,560.347,464.851,560.25Z" transform="translate(-249.578 -383.312)" fill="#455daa"/>
    </g>
  </g>
</svg>
