<svg xmlns="http://www.w3.org/2000/svg" xmlns:xlink="http://www.w3.org/1999/xlink" width="500" height="500" viewBox="0 0 500 500">
  <defs>
    <clipPath id="clip-ic-Kualitas_6">
      <rect width="500" height="500"/>
    </clipPath>
  </defs>
  <g id="ic-Kualitas_6" data-name="ic-quality" clip-path="url(#clip-ic-Kualitas_6)">
    <rect width="500" height="500" fill="rgba(255,255,255,0)"/>
    <g id="quality" transform="translate(0 -0.301)">
      <path id="Path_2800" data-name="Path 2800" d="M238.016,89.2C155.741,89.2,88.9,156.153,88.9,238.316s66.954,149.113,149.117,149.113,149.111-66.955,149.111-149.113S320.289,89.2,238.016,89.2ZM312.8,202.569,222.807,287.45a8.746,8.746,0,0,1-6.242,2.5,8.84,8.84,0,0,1-6.468-2.726L163,238.884a9.07,9.07,0,0,1,12.939-12.714L216.8,268.158,300.315,189.4A9.071,9.071,0,0,1,312.8,202.569Zm0,0" transform="translate(11.985 11.985)" fill="#2cbe0e"/>
      <path id="Path_2801" data-name="Path 2801" d="M464.138,304.656,500,250.3l-35.862-54.36a9.175,9.175,0,0,1-1.476-5.448l3.63-65.136-57.986-29.39a8.963,8.963,0,0,1-3.972-3.972L375.055,34l-65.136,3.631a9.144,9.144,0,0,1-5.448-1.476L250,.3,195.64,36.158a9.139,9.139,0,0,1-5.444,1.476L125.055,34,95.666,91.995a8.963,8.963,0,0,1-3.972,3.972L33.7,125.241l3.631,65.141a9.189,9.189,0,0,1-1.472,5.448L0,250.3l35.862,54.356a9.18,9.18,0,0,1,1.472,5.448L33.7,375.241,91.694,404.52a8.964,8.964,0,0,1,3.972,3.972l29.279,57.991,65.136-3.635h.452a9.584,9.584,0,0,1,5,1.476l54.356,35.862,54.36-35.862a9.2,9.2,0,0,1,5.444-1.476l65.141,3.635,29.279-57.991a8.964,8.964,0,0,1,3.972-3.972l57.986-29.279L462.436,310.1a11.407,11.407,0,0,1,1.7-5.448ZM250,417.57c-92.261,0-167.274-75.013-167.274-167.269S157.74,83.028,250,83.028,417.269,158.041,417.269,250.3,342.261,417.57,250,417.57Zm0,0" transform="translate(0 0)" fill="#2cbe0e"/>
    </g>
  </g>
</svg>
