<svg xmlns="http://www.w3.org/2000/svg" xmlns:xlink="http://www.w3.org/1999/xlink" width="500" height="500" viewBox="0 0 500 500">
  <defs>
    <clipPath id="clip-ic-replacement_4">
      <rect width="500" height="500"/>
    </clipPath>
  </defs>
  <g id="ic-replacement_4" data-name="ic-replacement – 4" clip-path="url(#clip-ic-replacement_4)">
    <rect width="500" height="500" fill="rgba(255,255,255,0)"/>
    <g id="_5155-54-54" data-name="5155-54-54" transform="translate(0.223 -0.347)">
      <path id="Path_2830" data-name="Path 2830" d="M251.739,285.549H236.621a11.66,11.66,0,1,1,0-23.321l35.743,0a11.662,11.662,0,0,1,10.315,6.215h25.947V257.025h0a40.436,40.436,0,0,0-3.845-17.173c-.255-1.351-.546-2.7-.925-4.063l-26.8-66.438-.181-.6C267.5,140.827,254.15,115,220.309,115H90.918c-34.679,0-46.933,26.488-56.516,53.62L6.358,235.2A41.02,41.02,0,0,0,0,257.025V277.7a40.232,40.232,0,0,0,1.1,9.339A16.261,16.261,0,0,0,0,292.879v61.487A16.331,16.331,0,0,0,16.326,370.7H50.2a16.326,16.326,0,0,0,16.321-16.331V323.62H229.439ZM54.3,175.27c10.676-30.116,19.26-39.334,36.623-39.334H220.3c17.233,0,26.84,10.255,36.581,39.181l19.561,39.645a59.869,59.869,0,0,0-20.824-3.679H52.981a60.19,60.19,0,0,0-18.867,3ZM71.1,285.549H35.355a11.66,11.66,0,1,1,0-23.321l35.748,0a11.66,11.66,0,1,1,0,23.321Zm126.277-2.337H114.231a7.4,7.4,0,0,1,0-14.767h83.148a7.4,7.4,0,0,1,0,14.767Z" transform="translate(0 -112.686)" fill="#2a4095"/>
      <path id="Path_2831" data-name="Path 2831" d="M721.7,563.658a40.477,40.477,0,0,0-3.845-17.178c-.255-1.346-.546-2.694-.926-4.058l-26.807-66.438-.181-.6c-9.38-27.932-22.726-53.775-56.567-53.775H503.984c-34.675,0-46.928,26.488-56.513,53.619l-28.044,66.6a41.026,41.026,0,0,0-6.358,21.829v20.671a40.243,40.243,0,0,0,1.1,9.333,16.23,16.23,0,0,0-1.1,5.848V661A16.322,16.322,0,0,0,429.4,677.323h33.879A16.326,16.326,0,0,0,479.6,661V630.252H657.1V661a16.325,16.325,0,0,0,16.33,16.326h31.931A16.323,16.323,0,0,0,721.7,661V599.488a16.326,16.326,0,0,0-1.1-5.84,40.359,40.359,0,0,0,1.1-9.335ZM467.366,481.9c10.676-30.121,19.25-39.288,36.618-39.288H633.37c17.234,0,26.84,10.255,36.558,39.183l19.56,39.644a59.764,59.764,0,0,0-20.823-3.68H466.051a60.223,60.223,0,0,0-18.866,3Zm16.807,110.28H448.424a11.661,11.661,0,1,1,0-23.322l35.748,0a11.66,11.66,0,1,1,0,23.319Zm126.273-2.336H527.3a7.4,7.4,0,0,1,0-14.768h83.144a7.4,7.4,0,1,1,0,14.768Zm74.966,2.336h-35.72a11.661,11.661,0,1,1,0-23.322l35.743,0a11.66,11.66,0,1,1,0,23.319Z" transform="translate(-221.919 -277.41)" fill="#2a4095"/>
      <rect id="Rectangle_716" data-name="Rectangle 716" width="12.929" height="12.929" transform="translate(148.711 77.794)" fill="#2a4095"/>
      <rect id="Rectangle_717" data-name="Rectangle 717" width="12.929" height="38.784" transform="translate(148.711 30.394)" fill="#2a4095"/>
      <path id="Path_2832" data-name="Path 2832" d="M712.534,144.184V110l-45.6,45.581,45.6,45.6v-34.2a45.652,45.652,0,0,1,45.591,45.6v22.819h22.813V212.588A68.477,68.477,0,0,0,712.534,144.184Z" transform="translate(-358.305 -110)" fill="#2a4095"/>
      <path id="Path_2833" data-name="Path 2833" d="M540.656,624.793H527.3a7.4,7.4,0,0,1,0-14.767h10.046a231.5,231.5,0,0,0-23.429-57.34H466.051a60.166,60.166,0,0,0-18.866,3l20.181-38.838c2.161-6.1,4.233-11.329,6.312-15.8q-7.829-7.566-16.34-14.388a173.7,173.7,0,0,0-9.866,23.518l-28.044,66.6a41.02,41.02,0,0,0-6.358,21.828v20.67a39.985,39.985,0,0,0,1.1,9.334,16.229,16.229,0,0,0-1.1,5.851v61.486A16.323,16.323,0,0,0,429.4,712.273h33.879A16.326,16.326,0,0,0,479.6,695.947V665.2h65.147A233.753,233.753,0,0,0,540.656,624.793Zm-56.484,2.337H448.424a11.66,11.66,0,1,1,0-23.321l35.748,0a11.66,11.66,0,1,1,0,23.321Z" transform="translate(-221.919 -312.359)" fill="#455daa"/>
      <path id="Path_2834" data-name="Path 2834" d="M248.037,438.275q-7.349-6.809-15.271-12.959a11.714,11.714,0,0,1-5.641-4.257,233.3,233.3,0,0,0-227-26.8c-.083,1.05-.13,2.106-.13,3.17V418.1a40.231,40.231,0,0,0,1.1,9.339A16.262,16.262,0,0,0,0,433.285V494.77A16.331,16.331,0,0,0,16.326,511.1H50.2A16.326,16.326,0,0,0,66.526,494.77V464.026h166.13ZM71.1,425.955H35.355a11.66,11.66,0,1,1,0-23.321l35.748,0a11.66,11.66,0,1,1,0,23.321Zm126.277-2.336H114.231a7.4,7.4,0,0,1,0-14.766h83.148a7.4,7.4,0,0,1,0,14.766Z" transform="translate(0 -253.093)" fill="#455daa"/>
    </g>
  </g>
</svg>
