<svg xmlns="http://www.w3.org/2000/svg" xmlns:xlink="http://www.w3.org/1999/xlink" width="500" height="500" viewBox="0 0 500 500">
  <defs>
    <clipPath id="clip-ic-transmisi-_21">
      <rect width="500" height="500"/>
    </clipPath>
  </defs>
  <g id="ic-transmisi-_21" data-name="ic-transmisi- – 21" clip-path="url(#clip-ic-transmisi-_21)">
    <rect width="500" height="500" fill="rgba(255,255,255,0)"/>
    <g id="icon-14" transform="translate(0)">
      <path id="Path_199" data-name="Path 199" d="M347.685,0H152.315A152.328,152.328,0,0,0,0,152.315v195.37A152.316,152.316,0,0,0,152.315,500h195.37A152.316,152.316,0,0,0,500,347.685V152.315A152.328,152.328,0,0,0,347.685,0Zm54.778,342.62c0,3.819,1.218,5.782,4.38,7.773a40.655,40.655,0,0,1,17.412,45.468c-5.065,17.343-20.9,29.63-38.556,29.917-18.694.3-35.384-11.88-40.412-29.5a40.926,40.926,0,0,1,17.926-46.259c3.278-1.977,4.023-4.014,3.968-7.407-.176-10.282-.074-20.569-.079-30.852v-43.5a13.424,13.424,0,0,0-1.727-.491q-16.342,0-32.68-.032h-45.6a41.287,41.287,0,0,1-19.4,19.37v28.593h0c0,8.736,0,17.472-.125,26.2-.056,4.06,1.06,6.389,4.681,8.648,15.528,9.7,22.176,28.273,16.981,45.986a41.122,41.122,0,0,1-38.472,29.227c-18.491.231-34.991-11.81-40.051-29.232a41.08,41.08,0,0,1,17.847-46.7c2.343-1.444,3.931-2.593,3.894-5.843-.153-12.88-.1-25.764-.148-38.648l.074.023V287.139a41.3,41.3,0,0,1-19.444-19.389H176.444q-9.19,0-18.366-.125a63.121,63.121,0,0,1-14.991-1.611c-28.361-7.366-45.514-29.75-45.63-59.139-.065-16.736-.13-33.472.037-50.2.032-3.208-1-4.852-3.7-6.523-16.037-9.894-23.343-29.333-17.81-46.657,5.778-18.1,21.787-29.63,40.593-29.167,17.412.4,33.509,12.935,38.157,29.722a40.88,40.88,0,0,1-18.62,46.417c-2.435,1.472-3.357,2.866-3.333,5.662.12,17.593-.028,35.213.1,52.819.093,13.181,9.991,23.25,23.069,23.375q18.954.181,37.9.06a.309.309,0,0,1,0,.046h18.981a41.273,41.273,0,0,1,19.579-19.579V201.62h-.037c-.1-14.3-.12-28.6.069-42.9.06-4.384-1.037-6.944-5.046-9.5-17.5-11.148-23.273-33.759-13.981-52.454,9.014-18.13,31.148-27.208,50.111-20.181,15.523,5.75,25.111,17.1,27.106,33.477,2.1,17.236-4.81,30.977-19.6,40.338-2.315,1.463-3.472,2.713-3.449,5.593q.074,9.167.079,18.333h0v.852c0,7.773,0,15.551.06,23.324h-.06v14.352a41.292,41.292,0,0,1,19.491,19.491h75.111c1.5,0,3-.213,4.657-.338.083-1.227.194-2.074.194-2.917,0-24.407-.079-48.815.12-73.218.028-3.4-1.81-4.347-4.069-5.759a41.352,41.352,0,0,1-17.861-46.37c4.782-16.884,21.185-29.306,38.889-29.468a41.227,41.227,0,0,1,39.926,29.444c5.269,17.014-1.778,36.051-17.347,45.926-3.167,2.009-4.324,4.042-4.315,7.829Q402.671,250.056,402.463,342.62Z" transform="translate(0 0)" fill="#2a4095"/>
      <path id="Path_200" data-name="Path 200" d="M323.555,630.091A341.141,341.141,0,0,0,267.69,442.454v27.888h0c0,8.735,0,17.472-.125,26.2-.055,4.064,1.06,6.39,4.681,8.649,15.528,9.7,22.176,28.271,16.982,45.984a41.122,41.122,0,0,1-38.472,29.229c-18.491.231-34.991-11.808-40.051-29.232a41.084,41.084,0,0,1,17.847-46.706c2.343-1.442,3.931-2.591,3.894-5.841-.153-12.88-.1-25.762-.148-38.649l.074.024V441.77a41.3,41.3,0,0,1-19.444-19.392H176.444q-9.19,0-18.366-.124a63.048,63.048,0,0,1-14.991-1.612c-28.361-7.363-45.514-29.752-45.63-59.138-.065-16.735-.13-33.473.037-50.2a7.163,7.163,0,0,0-.861-3.891A341.367,341.367,0,0,0,1.181,287.93,153.762,153.762,0,0,0,0,306.946V502.314A152.318,152.318,0,0,0,152.315,654.631h170.37Q323.546,642.463,323.555,630.091Z" transform="translate(0 -154.63)" fill="#455daa"/>
      <path id="Path_201" data-name="Path 201" d="M366.921,427.491a40.426,40.426,0,0,1,3.492-6.019,343.54,343.54,0,0,0-83.484-58.213c.024,13.592-.039,27.182.057,40.768.092,13.181,9.99,23.249,23.068,23.374q18.955.183,37.9.061v.046Z" transform="translate(-154.09 -195.085)" fill="#455daa"/>
    </g>
  </g>
</svg>
