<svg xmlns="http://www.w3.org/2000/svg" xmlns:xlink="http://www.w3.org/1999/xlink" width="500" height="500" viewBox="0 0 500 500">
  <defs>
    <filter id="Ellipse_110" x="-9" y="-6" width="518" height="518" filterUnits="userSpaceOnUse">
      <feOffset dy="3" input="SourceAlpha"/>
      <feGaussianBlur stdDeviation="3" result="blur"/>
      <feFlood flood-opacity="0.161"/>
      <feComposite operator="in" in2="blur"/>
      <feComposite in="SourceGraphic"/>
    </filter>
    <clipPath id="clip-ic-tinyCTA">
      <rect width="500" height="500"/>
    </clipPath>
  </defs>
  <g id="ic-tinyCTA" clip-path="url(#clip-ic-tinyCTA)">
    <rect width="500" height="500" fill="rgba(255,255,255,0)"/>
    <g transform="matrix(1, 0, 0, 1, 0, 0)" filter="url(#Ellipse_110)">
      <circle id="Ellipse_110-2" data-name="Ellipse 110" cx="250" cy="250" r="250" fill="#fff"/>
    </g>
    <g id="back" transform="translate(307.685 356.783) rotate(180)">
      <g id="Group_339" data-name="Group 339" transform="translate(0)">
        <path id="Path_2760" data-name="Path 2760" d="M40.061,101.507l75.914-75.918a11.124,11.124,0,0,0,0-15.7l-6.652-6.649a11.119,11.119,0,0,0-15.7,0L3.237,93.63a11.2,11.2,0,0,0,0,15.754l90.3,90.3a11.12,11.12,0,0,0,15.7,0l6.651-6.649a11.114,11.114,0,0,0,0-15.7Z" fill="#f17c1f"/>
      </g>
    </g>
  </g>
</svg>
